<svg width="800" height="600" viewBox="0 0 800 600" xmlns="http://www.w3.org/2000/svg">
  <defs>
    <linearGradient id="cellGrad" x1="0%" y1="0%" x2="0%" y2="100%">
      <stop offset="0%" style="stop-color:#ffffff;stop-opacity:1" />
      <stop offset="100%" style="stop-color:#f8f9fa;stop-opacity:1" />
    </linearGradient>
    <filter id="shadow" x="-20%" y="-20%" width="140%" height="140%">
      <feDropShadow dx="1" dy="1" stdDeviation="2" flood-color="#000" flood-opacity="0.2"/>
    </filter>
  </defs>
  
  <!-- Background -->
  <rect width="800" height="600" fill="#ffffff"/>
  
  <!-- Jupyter Header -->
  <rect x="0" y="0" width="800" height="40" fill="#f8f9fa" stroke="#dee2e6" stroke-width="1"/>
  <circle cx="20" cy="20" r="6" fill="#ff5f56"/>
  <circle cx="40" cy="20" r="6" fill="#ffbd2e"/>
  <circle cx="60" cy="20" r="6" fill="#27ca3f"/>
  <text x="90" y="25" font-family="Arial, sans-serif" font-size="14" fill="#495057">
    PlanetScope-py Interactive Workflow.ipynb
  </text>
  
  <!-- Cell 1: ROI Selection -->
  <g transform="translate(20, 50)">
    <rect x="0" y="0" width="760" height="120" fill="url(#cellGrad)" stroke="#dee2e6" stroke-width="1" filter="url(#shadow)"/>
    
    <!-- Cell number -->
    <rect x="0" y="0" width="50" height="120" fill="#007acc" opacity="0.1"/>
    <text x="25" y="15" text-anchor="middle" font-family="Arial, sans-serif" font-size="12" fill="#007acc">
      [1]:
    </text>
    
    <!-- Code area -->
    <rect x="60" y="10" width="690" height="50" fill="#f8f9fa" stroke="#e9ecef"/>
    <text x="70" y="25" font-family="Courier, monospace" font-size="11" fill="#e83e8c">
      from planetscope_py import jupyter_roi_selector
    </text>
    <text x="70" y="40" font-family="Courier, monospace" font-size="11" fill="#e83e8c">
      map_obj = jupyter_roi_selector("milan")
    </text>
    <text x="70" y="55" font-family="Courier, monospace" font-size="11" fill="#e83e8c">
      map_obj  # Interactive map displays below
    </text>
    
    <!-- Output area -->
    <rect x="60" y="70" width="690" height="40" fill="#ffffff" stroke="#e9ecef"/>
    <rect x="70" y="75" width="200" height="30" fill="#e9ecef" stroke="#adb5bd"/>
    <text x="170" y="93" text-anchor="middle" font-family="Arial, sans-serif" font-size="10" fill="#495057">
      📍 Interactive Map Widget
    </text>
    <text x="300" y="85" font-family="Arial, sans-serif" font-size="10" fill="#6c757d">
      Draw your ROI polygon and export as 'roi_selection.geojson'
    </text>
  </g>
  
  <!-- Cell 2: Preview -->
  <g transform="translate(20, 180)">
    <rect x="0" y="0" width="760" height="140" fill="url(#cellGrad)" stroke="#dee2e6" stroke-width="1" filter="url(#shadow)"/>
    
    <!-- Cell number -->
    <rect x="0" y="0" width="50" height="140" fill="#28a745" opacity="0.1"/>
    <text x="25" y="15" text-anchor="middle" font-family="Arial, sans-serif" font-size="12" fill="#28a745">
      [2]:
    </text>
    
    <!-- Code area -->
    <rect x="60" y="10" width="690" height="80" fill="#f8f9fa" stroke="#e9ecef"/>
    <text x="70" y="25" font-family="Courier, monospace" font-size="11" fill="#e83e8c">
      from planetscope_py import quick_preview_with_shapely, jupyter_get_shapely_roi, PlanetScopeQuery
    </text>
    <text x="70" y="40" font-family="Courier, monospace" font-size="11" fill="#e83e8c">
      roi_polygon = jupyter_get_shapely_roi("roi_selection.geojson")
    </text>
    <text x="70" y="55" font-family="Courier, monospace" font-size="11" fill="#e83e8c">
      query = PlanetScopeQuery()
    </text>
    <text x="70" y="70" font-family="Courier, monospace" font-size="11" fill="#e83e8c">
      preview_map = quick_preview_with_shapely(query, roi_polygon, "2025-01-01/2025-01-31", cloud_cover_max=0.0)
    </text>
    <text x="70" y="85" font-family="Courier, monospace" font-size="11" fill="#e83e8c">
      preview_map
    </text>
    
    <!-- Output area -->
    <rect x="60" y="100" width="690" height="30" fill="#ffffff" stroke="#e9ecef"/>
    <text x="70" y="115" font-family="Courier, monospace" font-size="9" fill="#6c757d">
      Searching for scenes in time period: 2025-01-01 to 2025-01-31
    </text>
    <text x="70" y="125" font-family="Courier, monospace" font-size="9" fill="#6c757d">
      Created preview with 13 scenes | ROI area: 44.90 km² | Cloud cover: <=0%
    </text>
  </g>
  
  <!-- Cell 3: Analysis -->
  <g transform="translate(20, 330)">
    <rect x="0" y="0" width="760" height="120" fill="url(#cellGrad)" stroke="#dee2e6" stroke-width="1" filter="url(#shadow)"/>
    
    <!-- Cell number -->
    <rect x="0" y="0" width="50" height="120" fill="#fd7e14" opacity="0.1"/>
    <text x="25" y="15" text-anchor="middle" font-family="Arial, sans-serif" font-size="12" fill="#fd7e14">
      [3]:
    </text>
    
    <!-- Code area -->
    <rect x="60" y="10" width="690" height="60" fill="#f8f9fa" stroke="#e9ecef"/>
    <text x="70" y="25" font-family="Courier, monospace" font-size="11" fill="#e83e8c">
      from planetscope_py import jupyter_quick_analysis
    </text>
    <text x="70" y="40" font-family="Courier, monospace" font-size="11" fill="#e83e8c">
      result = jupyter_quick_analysis("roi_selection.geojson", "2025-01-01/2025-01-31", "spatial")
    </text>
    <text x="70" y="55" font-family="Courier, monospace" font-size="11" fill="#e83e8c">
      print(f"Found {result['scenes_found']} scenes with mean density: {result['density_result'].stats['mean']:.1f}")
    </text>
    
    <!-- Output area -->
    <rect x="60" y="80" width="690" height="30" fill="#ffffff" stroke="#e9ecef"/>
    <text x="70" y="95" font-family="Courier, monospace" font-size="10" fill="#495057">
      Found 13 scenes with mean density: 2.4
    </text>
    <text x="70" y="105" font-family="Arial, sans-serif" font-size="9" fill="#6c757d">
      ✓ Analysis complete: density.tif, analysis.png, metadata.json exported
    </text>
  </g>
  
  <!-- Cell 4: Results Display -->
  <g transform="translate(20, 460)">
    <rect x="0" y="0" width="760" height="120" fill="url(#cellGrad)" stroke="#dee2e6" stroke-width="1" filter="url(#shadow)"/>
    
    <!-- Cell number -->
    <rect x="0" y="0" width="50" height="120" fill="#6f42c1" opacity="0.1"/>
    <text x="25" y="15" text-anchor="middle" font-family="Arial, sans-serif" font-size="12" fill="#6f42c1">
      [4]:
    </text>
    
    <!-- Code area -->
    <rect x="60" y="10" width="690" height="30" fill="#f8f9fa" stroke="#e9ecef"/>
    <text x="70" y="25" font-family="Courier, monospace" font-size="11" fill="#e83e8c">
      result['visualizations']  # Display analysis plots
    </text>
    
    <!-- Output area - visualization mockup -->
    <rect x="60" y="50" width="690" height="60" fill="#ffffff" stroke="#e9ecef"/>
    
    <!-- Mini density plot -->
    <rect x="80" y="60" width="120" height="40" fill="#f8f9fa" stroke="#dee2e6"/>
    <text x="140" y="75" text-anchor="middle" font-family="Arial, sans-serif" font-size="8" fill="#495057">Density Map</text>
    <rect x="85" y="65" width="10" height="25" fill="#ff4444" opacity="0.7"/>
    <rect x="100" y="70" width="10" height="20" fill="#ffaa44" opacity="0.7"/>
    <rect x="115" y="75" width="10" height="15" fill="#44ff44" opacity="0.7"/>
    <rect x="130" y="80" width="10" height="10" fill="#4444ff" opacity="0.7"/>
    <rect x="145" y="82" width="10" height="8" fill="#aa44ff" opacity="0.7"/>
    
    <!-- Mini footprint plot -->
    <rect x="220" y="60" width="120" height="40" fill="#f8f9fa" stroke="#dee2e6"/>
    <text x="280" y="75" text-anchor="middle" font-family="Arial, sans-serif" font-size="8" fill="#495057">Scene Footprints</text>
    <polygon points="230,70 250,68 255,85 240,88 225,80" fill="none" stroke="#007acc" stroke-width="1" opacity="0.7"/>
    <polygon points="250,72 270,70 275,87 260,90 245,82" fill="none" stroke="#28a745" stroke-width="1" opacity="0.7"/>
    <polygon points="270,74 290,72 295,89 280,92 265,84" fill="none" stroke="#fd7e14" stroke-width="1" opacity="0.7"/>
    
    <!-- Statistics -->
    <rect x="360" y="60" width="180" height="40" fill="#f8f9fa" stroke="#dee2e6"/>
    <text x="450" y="72" text-anchor="middle" font-family="Arial, sans-serif" font-size="8" fill="#495057">Statistics Summary</text>
    <text x="370" y="82" font-family="Courier, monospace" font-size="7" fill="#495057">Mean: 2.4 | Max: 8.1 | Coverage: 94.2%</text>
    <text x="370" y="92" font-family="Courier, monospace" font-size="7" fill="#495057">Total scenes: 13 | Area: 44.90 km²</text>
  </g>
  
  <!-- Workflow summary at bottom -->
  <rect x="20" y="590" width="760" height="2" fill="#28a745"/>
  <text x="400" y="608" text-anchor="middle" font-family="Arial, sans-serif" font-size="10" fill="#495057">
    Complete workflow: ROI Selection → Preview → Analysis → Results - all in Jupyter notebook
  </text>
</svg>