<svg width="800" height="400" viewBox="0 0 800 400" xmlns="http://www.w3.org/2000/svg">
  <defs>
    <linearGradient id="beforeGrad" x1="0%" y1="0%" x2="100%" y2="100%">
      <stop offset="0%" style="stop-color:#dc3545;stop-opacity:1" />
      <stop offset="100%" style="stop-color:#c82333;stop-opacity:1" />
    </linearGradient>
    <linearGradient id="afterGrad" x1="0%" y1="0%" x2="100%" y2="100%">
      <stop offset="0%" style="stop-color:#28a745;stop-opacity:1" />
      <stop offset="100%" style="stop-color:#1e7e34;stop-opacity:1" />
    </linearGradient>
    <filter id="shadow" x="-20%" y="-20%" width="140%" height="140%">
      <feDropShadow dx="2" dy="2" stdDeviation="3" flood-color="#000" flood-opacity="0.3"/>
    </filter>
    <pattern id="clouds" patternUnits="userSpaceOnUse" width="20" height="20">
      <rect width="20" height="20" fill="white" opacity="0.7"/>
      <circle cx="5" cy="5" r="3" fill="white" opacity="0.9"/>
      <circle cx="15" cy="10" r="4" fill="white" opacity="0.8"/>
      <circle cx="10" cy="15" r="2" fill="white" opacity="0.9"/>
    </pattern>
  </defs>
  
  <!-- Background -->
  <rect width="800" height="400" fill="#f8f9fa"/>
  
  <!-- Title -->
  <text x="400" y="30" text-anchor="middle" font-family="Arial, sans-serif" font-size="24" font-weight="bold" fill="#2c3e50">
    Cloud Cover Filtering: Before vs After
  </text>
  
  <!-- Before Section -->
  <g transform="translate(50, 80)">
    <!-- Title outside box -->
    <text x="150" y="-10" text-anchor="middle" font-family="Arial, sans-serif" font-size="16" font-weight="bold" fill="#2c3e50">
      BEFORE: cloud_cover_max = 0.2 (20%)
    </text>
    
    <rect x="0" y="0" width="300" height="260" rx="10" fill="url(#beforeGrad)" filter="url(#shadow)"/>
    
    <!-- Satellite imagery with clouds -->
    <rect x="20" y="20" width="260" height="160" rx="5" fill="white" opacity="0.9"/>
    
    <!-- Scene 1 - Very cloudy -->
    <rect x="30" y="30" width="80" height="80" fill="#8fbc8f"/>
    <rect x="30" y="30" width="80" height="80" fill="url(#clouds)"/>
    <text x="70" y="120" text-anchor="middle" font-family="Arial, sans-serif" font-size="10" fill="#dc3545">
      35% clouds
    </text>
    
    <!-- Scene 2 - Partially cloudy -->
    <rect x="120" y="30" width="80" height="80" fill="#daa520"/>
    <rect x="120" y="30" width="40" height="80" fill="url(#clouds)"/>
    <text x="160" y="120" text-anchor="middle" font-family="Arial, sans-serif" font-size="10" fill="#ffc107">
      18% clouds
    </text>
    
    <!-- Scene 3 - Some clouds -->
    <rect x="210" y="30" width="60" height="80" fill="#4682b4"/>
    <rect x="210" y="30" width="30" height="40" fill="url(#clouds)"/>
    <text x="240" y="120" text-anchor="middle" font-family="Arial, sans-serif" font-size="10" fill="#ffc107">
      15% clouds
    </text>
    
    <!-- ROI outline -->
    <polygon points="80,50 200,45 220,90 160,105 100,80" fill="none" stroke="#dc3545" stroke-width="3" stroke-dasharray="5,5"/>
    
    <!-- Problems list -->
    <rect x="30" y="130" width="240" height="40" fill="#fff3cd" stroke="#ffeaa7" stroke-width="1"/>
    <text x="40" y="145" font-family="Arial, sans-serif" font-size="11" font-weight="bold" fill="#856404">
      Problems:
    </text>
    <text x="40" y="157" font-family="Arial, sans-serif" font-size="10" fill="#856404">
      • Cloudy scenes still appear • Poor image quality
    </text>
    
    <text x="150" y="195" text-anchor="middle" font-family="Arial, sans-serif" font-size="13" fill="white">
      Result: 47 scenes found
    </text>
    <text x="150" y="210" text-anchor="middle" font-family="Arial, sans-serif" font-size="11" fill="white">
      Many unusable due to clouds
    </text>
  </g>
  
  <!-- VS Arrow -->
  <g transform="translate(370, 160)">
    <circle cx="30" cy="0" r="25" fill="#6c757d"/>
    <text x="30" y="6" text-anchor="middle" font-family="Arial, sans-serif" font-size="16" font-weight="bold" fill="white">
      VS
    </text>
  </g>
  
  <!-- After Section -->
  <g transform="translate(450, 80)">
    <!-- Title outside box -->
    <text x="150" y="-10" text-anchor="middle" font-family="Arial, sans-serif" font-size="16" font-weight="bold" fill="#2c3e50">
      AFTER: cloud_cover_max = 0.0 (0%)
    </text>
    
    <rect x="0" y="0" width="300" height="260" rx="10" fill="url(#afterGrad)" filter="url(#shadow)"/>
    
    <!-- Clean satellite imagery -->
    <rect x="20" y="20" width="260" height="160" rx="5" fill="white" opacity="0.9"/>
    
    <!-- Scene 1 - Clear -->
    <rect x="30" y="30" width="80" height="80" fill="#8fbc8f"/>
    <text x="70" y="120" text-anchor="middle" font-family="Arial, sans-serif" font-size="10" fill="#28a745">
      0% clouds ✓
    </text>
    
    <!-- Scene 2 - Clear -->
    <rect x="120" y="30" width="80" height="80" fill="#daa520"/>
    <text x="160" y="120" text-anchor="middle" font-family="Arial, sans-serif" font-size="10" fill="#28a745">
      0% clouds ✓
    </text>
    
    <!-- Scene 3 - Clear -->
    <rect x="210" y="30" width="60" height="80" fill="#4682b4"/>
    <text x="240" y="120" text-anchor="middle" font-family="Arial, sans-serif" font-size="10" fill="#28a745">
      0% clouds ✓
    </text>
    
    <!-- ROI outline -->
    <polygon points="80,50 200,45 220,90 160,105 100,80" fill="none" stroke="#dc3545" stroke-width="3" stroke-dasharray="5,5"/>
    
    <!-- Benefits list -->
    <rect x="30" y="130" width="240" height="40" fill="#d4edda" stroke="#c3e6cb" stroke-width="1"/>
    <text x="40" y="145" font-family="Arial, sans-serif" font-size="11" font-weight="bold" fill="#155724">
      Benefits:
    </text>
    <text x="40" y="157" font-family="Arial, sans-serif" font-size="10" fill="#155724">
      • Only cloud-free scenes • High quality imagery
    </text>
    
    <text x="150" y="195" text-anchor="middle" font-family="Arial, sans-serif" font-size="13" fill="white">
      Result: 13 scenes found
    </text>
    <text x="150" y="210" text-anchor="middle" font-family="Arial, sans-serif" font-size="11" fill="white">
      All scenes usable for analysis
    </text>
  </g>
  
  <!-- Code comparison at bottom -->
  <rect x="50" y="360" width="700" height="50" rx="5" fill="#2c3e50" filter="url(#shadow)"/>
  <text x="80" y="378" font-family="Courier, monospace" font-size="11" fill="#dc3545">
    preview = quick_preview_with_shapely(..., cloud_cover_max=0.2)  # Default filtering
  </text>
  <text x="80" y="395" font-family="Courier, monospace" font-size="11" fill="#28a745">
    preview = quick_preview_with_shapely(..., cloud_cover_max=0.0)  # Strict filtering
  </text>
</svg>