<svg width="900" height="400" viewBox="0 0 900 400" xmlns="http://www.w3.org/2000/svg">
  <defs>
    <linearGradient id="blueGrad" x1="0%" y1="0%" x2="100%" y2="100%">
      <stop offset="0%" style="stop-color:#007acc;stop-opacity:1" />
      <stop offset="100%" style="stop-color:#005c99;stop-opacity:1" />
    </linearGradient>
    <linearGradient id="greenGrad" x1="0%" y1="0%" x2="100%" y2="100%">
      <stop offset="0%" style="stop-color:#28a745;stop-opacity:1" />
      <stop offset="100%" style="stop-color:#1e7e34;stop-opacity:1" />
    </linearGradient>
    <linearGradient id="orangeGrad" x1="0%" y1="0%" x2="100%" y2="100%">
      <stop offset="0%" style="stop-color:#fd7e14;stop-opacity:1" />
      <stop offset="100%" style="stop-color:#e55100;stop-opacity:1" />
    </linearGradient>
    <filter id="shadow" x="-20%" y="-20%" width="140%" height="140%">
      <feDropShadow dx="3" dy="3" stdDeviation="4" flood-color="#000" flood-opacity="0.2"/>
    </filter>
    <marker id="arrowhead" markerWidth="12" markerHeight="8" refX="11" refY="4" orient="auto">
      <polygon points="0 0, 12 4, 0 8" fill="#495057"/>
    </marker>
  </defs>
  
  <!-- Background -->
  <rect width="900" height="400" fill="#f8f9fa"/>
  
  <!-- Title -->
  <text x="450" y="35" text-anchor="middle" font-family="Arial, sans-serif" font-size="26" font-weight="bold" fill="#2c3e50">
    PlanetScope-py Interactive Workflow
  </text>
  
  <!-- Step 1: ROI Selection -->
  <g transform="translate(50, 80)">
    <rect x="0" y="0" width="200" height="140" rx="12" fill="url(#blueGrad)" filter="url(#shadow)"/>
    <text x="100" y="25" text-anchor="middle" font-family="Arial, sans-serif" font-size="16" font-weight="bold" fill="white">
      Step 1: ROI Selection
    </text>
    
    <!-- Interactive map icon -->
    <rect x="50" y="40" width="100" height="70" rx="8" fill="white" opacity="0.95"/>
    <circle cx="100" cy="75" r="18" fill="#007acc" opacity="0.6"/>
    <polygon points="80,60 120,60 120,90 80,90" fill="none" stroke="#dc3545" stroke-width="3" stroke-dasharray="4,4"/>
    <circle cx="85" cy="65" r="2" fill="#dc3545"/>
    <circle cx="115" cy="85" r="2" fill="#dc3545"/>
    
    <text x="100" y="130" text-anchor="middle" font-family="Arial, sans-serif" font-size="12" fill="white">
      Interactive Map Drawing
    </text>
  </g>
  
  <!-- Arrow 1 -->
  <g transform="translate(260, 145)">
    <line x1="0" y1="0" x2="80" y2="0" stroke="#495057" stroke-width="4" marker-end="url(#arrowhead)"/>
    <text x="40" y="-12" text-anchor="middle" font-family="Arial, sans-serif" font-size="13" font-weight="bold" fill="#495057">
      Export GeoJSON
    </text>
  </g>
  
  <!-- Step 2: Preview -->
  <g transform="translate(350, 80)">
    <rect x="0" y="0" width="200" height="140" rx="12" fill="url(#greenGrad)" filter="url(#shadow)"/>
    <text x="100" y="25" text-anchor="middle" font-family="Arial, sans-serif" font-size="16" font-weight="bold" fill="white">
      Step 2: Imagery Preview
    </text>
    
    <!-- Satellite imagery preview -->
    <rect x="40" y="40" width="120" height="70" rx="8" fill="white" opacity="0.95"/>
    <rect x="45" y="45" width="22" height="28" fill="#8fbc8f"/>
    <rect x="70" y="45" width="22" height="28" fill="#daa520"/>
    <rect x="95" y="45" width="22" height="28" fill="#4682b4"/>
    <rect x="120" y="45" width="15" height="28" fill="#8fbc8f"/>
    <rect x="45" y="76" width="22" height="22" fill="#daa520"/>
    <rect x="70" y="76" width="22" height="22" fill="#4682b4"/>
    <rect x="95" y="76" width="40" height="22" fill="#8fbc8f"/>
    
    <!-- Cloud filter indicator -->
    <circle cx="55" cy="55" r="8" fill="white" opacity="0.8"/>
    <text x="55" y="58" text-anchor="middle" font-family="Arial, sans-serif" font-size="10" fill="#28a745">✓</text>
    
    <text x="100" y="130" text-anchor="middle" font-family="Arial, sans-serif" font-size="12" fill="white">
      Quality Filtering Applied
    </text>
  </g>
  
  <!-- Arrow 2 -->
  <g transform="translate(560, 145)">
    <line x1="0" y1="0" x2="80" y2="0" stroke="#495057" stroke-width="4" marker-end="url(#arrowhead)"/>
    <text x="40" y="-12" text-anchor="middle" font-family="Arial, sans-serif" font-size="13" font-weight="bold" fill="#495057">
      Run Analysis
    </text>
  </g>
  
  <!-- Step 3: Analysis -->
  <g transform="translate(650, 80)">
    <rect x="0" y="0" width="200" height="140" rx="12" fill="url(#orangeGrad)" filter="url(#shadow)"/>
    <text x="100" y="25" text-anchor="middle" font-family="Arial, sans-serif" font-size="16" font-weight="bold" fill="white">
      Step 3: Analysis Results
    </text>
    
    <!-- Analysis results visualization -->
    <rect x="40" y="40" width="120" height="70" rx="8" fill="white" opacity="0.95"/>
    
    <!-- Density heatmap representation -->
    <rect x="50" y="50" width="18" height="50" fill="#ff4444" opacity="0.8"/>
    <rect x="72" y="55" width="18" height="45" fill="#ff8844" opacity="0.8"/>
    <rect x="94" y="60" width="18" height="40" fill="#ffcc44" opacity="0.8"/>
    <rect x="116" y="65" width="18" height="35" fill="#44ff44" opacity="0.8"/>
    <rect x="138" y="70" width="18" height="30" fill="#4444ff" opacity="0.8"/>
    
    <text x="100" y="130" text-anchor="middle" font-family="Arial, sans-serif" font-size="12" fill="white">
      Density Maps &amp; Statistics
    </text>
  </g>
  
  <!-- Key Features Section -->
  <g transform="translate(50, 250)">
    <rect x="0" y="0" width="400" height="90" rx="8" fill="white" stroke="#dee2e6" stroke-width="2" filter="url(#shadow)"/>
    <text x="15" y="25" font-family="Arial, sans-serif" font-size="16" font-weight="bold" fill="#2c3e50">
      Key Features:
    </text>
    <text x="25" y="45" font-family="Arial, sans-serif" font-size="13" fill="#495057">
      • Visual ROI selection - no coding required
    </text>
    <text x="25" y="62" font-family="Arial, sans-serif" font-size="13" fill="#495057">
      • Real satellite imagery preview with quality filtering
    </text>
    <text x="25" y="79" font-family="Arial, sans-serif" font-size="13" fill="#495057">
      • Professional analysis outputs (GeoTIFF, visualizations)
    </text>
  </g>
  
  <!-- Code Examples Section -->
  <g transform="translate(470, 250)">
    <rect x="0" y="0" width="380" height="90" rx="8" fill="#2c3e50" stroke="#495057" stroke-width="2" filter="url(#shadow)"/>
    <text x="15" y="25" font-family="Arial, sans-serif" font-size="16" font-weight="bold" fill="white">
      Simple Code:
    </text>
    <text x="15" y="45" font-family="Courier, monospace" font-size="12" fill="#ffc107">
      map_obj = jupyter_roi_selector("milan")
    </text>
    <text x="15" y="62" font-family="Courier, monospace" font-size="12" fill="#ffc107">
      preview = quick_preview_with_shapely(...)
    </text>
    <text x="15" y="79" font-family="Courier, monospace" font-size="12" fill="#ffc107">
      result = jupyter_quick_analysis(...)
    </text>
  </g>
  
  <!-- Bottom tagline -->
  <text x="450" y="370" text-anchor="middle" font-family="Arial, sans-serif" font-size="14" font-style="italic" fill="#6c757d">
    Making satellite imagery analysis simple and visual for everyone
  </text>
</svg>